<svg width="30" height="30" viewBox="0 0 30 30" fill="none" xmlns="http://www.w3.org/2000/svg">
<path d="M0.991274 29.7391C0.584145 29.7391 0.253906 29.4089 0.253906 29.0018V0.987465C0.253906 0.46695 0.777965 0.116159 1.2549 0.298995L12.2254 3.7456C12.5408 3.84375 12.7427 4.13466 12.7427 4.44824L12.7438 7.99547H17.2531L17.2541 4.44824C17.2541 4.13466 17.4561 3.84375 17.7714 3.7456L28.742 0.298995C29.2193 0.116159 29.743 0.46695 29.743 0.987465V29.0018C29.743 29.4089 29.4127 29.7391 29.0056 29.7391C19.6675 29.7391 10.3294 29.7391 0.991274 29.7391V29.7391ZM15.9094 28.2648V24.6304H14.0878V28.2648H15.9094V28.2648ZM12.6134 28.2648V23.8934C12.6134 23.4862 12.9433 23.156 13.3504 23.156H16.6464C17.0536 23.156 17.3838 23.4862 17.3838 23.8934V28.2648H21.0653V21.1699H8.93153V28.2648H12.6134ZM22.5397 23.4033H28.2686V1.99058L18.7274 4.98789V7.99547H21.8023C22.2095 7.99547 22.5397 8.32571 22.5397 8.73284V23.4033V23.4033ZM28.2686 24.8777H22.5397V28.2648H28.2686V24.8777ZM1.72829 23.4033H7.45715V8.73284C7.45715 8.32571 7.78739 7.99547 8.19452 7.99547H11.2694V4.98789L1.72829 1.99058V23.4033ZM7.45715 24.8777H1.72829V28.2648H7.45715V24.8777ZM15.7358 9.46985V14.1754H21.0653V9.46985H15.7358V9.46985ZM15.7358 15.6498V19.6956H21.0653V15.6498H15.7358V15.6498ZM14.2614 19.6956V15.6498H8.93153V19.6956H14.2614ZM14.2614 14.1754V9.46985H8.93153V14.1754H14.2614Z" fill="white"/>
</svg>
