<svg width="25" height="25" viewBox="0 0 25 25" fill="none" xmlns="http://www.w3.org/2000/svg">
<g clip-path="url(#clip0_8446_2971)">
<path d="M5.9082 3.34375H2.19727C1.79243 3.34375 1.46484 3.67134 1.46484 4.07617C1.46484 4.48101 1.79243 4.80859 2.19727 4.80859H5.9082C6.31304 4.80859 6.64062 4.48101 6.64062 4.07617C6.64062 3.67134 6.31304 3.34375 5.9082 3.34375Z" fill="#1B184F"/>
<path d="M5.9082 9.20312H2.19727C1.79243 9.20312 1.46484 9.53071 1.46484 9.93555C1.46484 10.3404 1.79243 10.668 2.19727 10.668H5.9082C6.31304 10.668 6.64062 10.3404 6.64062 9.93555C6.64062 9.53071 6.31304 9.20312 5.9082 9.20312Z" fill="#1B184F"/>
<path d="M4.44336 6.27344H0.732422C0.327588 6.27344 0 6.60103 0 7.00586C0 7.41069 0.327588 7.73828 0.732422 7.73828H4.44336C4.84819 7.73828 5.17578 7.41069 5.17578 7.00586C5.17578 6.60103 4.84819 6.27344 4.44336 6.27344Z" fill="#1B184F"/>
<path d="M23.5352 9.93863H19.0918V7.00894C19.0918 5.72252 17.5181 5.04518 16.5908 5.97369L10.7319 11.8326C10.1597 12.4048 10.1597 13.3318 10.7319 13.904L14.0907 17.2629L9.99948 21.3541C9.42726 21.9263 9.42726 22.8533 9.99948 23.4255C10.5716 23.9977 11.4986 23.9977 12.0709 23.4255L17.1978 18.2985C17.77 17.7263 17.77 16.7994 17.1978 16.2272L13.839 12.8683L16.1621 10.5452V11.4035C16.1621 12.2124 16.818 12.8683 17.627 12.8683H23.5352C24.3441 12.8683 25 12.2124 25 11.4035C25 10.5945 24.3441 9.93863 23.5352 9.93863Z" fill="#1B184F"/>
<path d="M13.6807 2.49188C13.0985 2.10491 12.326 2.18148 11.8325 2.67498L7.80416 6.7033C7.23195 7.27552 7.23195 8.20247 7.80416 8.77469C8.37638 9.34691 9.30338 9.34686 9.8756 8.77464L13.0549 5.59534L14.1259 6.36683L15.5568 4.93587C15.7962 4.69652 16.0785 4.51073 16.3873 4.36566L13.6807 2.49188Z" fill="#1B184F"/>
<path d="M9.69596 14.9352C9.32482 14.564 9.07706 14.1072 8.94645 13.6133L1.21017 21.3496C0.637952 21.9218 0.637952 22.8487 1.21017 23.4209C1.78234 23.9931 2.70934 23.9932 3.28156 23.4209L10.7317 15.9708L9.69596 14.9352Z" fill="#1B184F"/>
<path d="M19.8223 5.54297C21.0358 5.54297 22.0195 4.55922 22.0195 3.3457C22.0195 2.13219 21.0358 1.14844 19.8223 1.14844C18.6087 1.14844 17.625 2.13219 17.625 3.3457C17.625 4.55922 18.6087 5.54297 19.8223 5.54297Z" fill="#1B184F"/>
</g>
<defs>
<clipPath id="clip0_8446_2971">
<rect width="25" height="25" fill="white"/>
</clipPath>
</defs>
</svg>
